<svg viewBox="7 2 75 75" fill="white" xmlns="http://www.w3.org/2000/svg" xmlns:xlink="http://www.w3.org/1999/xlink" version="1.1" xml:space="preserve">
  <g>
    <path d="M56.25,11.66h-12.5c-0.464,0-0.84,0.376-0.84,0.84v55c0,0.464,0.376,0.84,0.84,0.84h12.5c0.464,0,0.84-0.376,0.84-0.84v-55   C57.09,12.036,56.714,11.66,56.25,11.66z"/>
    <path d="M36.25,11.66h-12.5c-0.464,0-0.84,0.376-0.84,0.84v55c0,0.464,0.376,0.84,0.84,0.84h12.5c0.464,0,0.84-0.376,0.84-0.84v-55   C37.09,12.036,36.714,11.66,36.25,11.66z"/>
  </g>
</svg>
